<?xml version="1.0" standalone="no"?>
<svg xmlns:xlink="http://www.w3.org/1999/xlink" id="wave" style="transform:rotate(180deg); transition: 0.3s" viewBox="0 0 1440 100" version="1.1" xmlns="http://www.w3.org/2000/svg"><defs><linearGradient id="sw-gradient-0" x1="0" x2="0" y1="1" y2="0"><stop stop-color="rgba(245, 241, 237, 1)" offset="0%"/><stop stop-color="rgba(245, 241, 237, 1)" offset="100%"/></linearGradient></defs><path style="transform:translate(0, 0px); opacity:1" fill="url(#sw-gradient-0)" d="M0,50L60,45C120,40,240,30,360,31.7C480,33,600,47,720,58.3C840,70,960,80,1080,70C1200,60,1320,30,1440,25C1560,20,1680,40,1800,53.3C1920,67,2040,73,2160,70C2280,67,2400,53,2520,43.3C2640,33,2760,27,2880,21.7C3000,17,3120,13,3240,11.7C3360,10,3480,10,3600,20C3720,30,3840,50,3960,60C4080,70,4200,70,4320,71.7C4440,73,4560,77,4680,68.3C4800,60,4920,40,5040,35C5160,30,5280,40,5400,50C5520,60,5640,70,5760,73.3C5880,77,6000,73,6120,61.7C6240,50,6360,30,6480,25C6600,20,6720,30,6840,35C6960,40,7080,40,7200,41.7C7320,43,7440,47,7560,46.7C7680,47,7800,43,7920,41.7C8040,40,8160,40,8280,33.3C8400,27,8520,13,8580,6.7L8640,0L8640,100L8580,100C8520,100,8400,100,8280,100C8160,100,8040,100,7920,100C7800,100,7680,100,7560,100C7440,100,7320,100,7200,100C7080,100,6960,100,6840,100C6720,100,6600,100,6480,100C6360,100,6240,100,6120,100C6000,100,5880,100,5760,100C5640,100,5520,100,5400,100C5280,100,5160,100,5040,100C4920,100,4800,100,4680,100C4560,100,4440,100,4320,100C4200,100,4080,100,3960,100C3840,100,3720,100,3600,100C3480,100,3360,100,3240,100C3120,100,3000,100,2880,100C2760,100,2640,100,2520,100C2400,100,2280,100,2160,100C2040,100,1920,100,1800,100C1680,100,1560,100,1440,100C1320,100,1200,100,1080,100C960,100,840,100,720,100C600,100,480,100,360,100C240,100,120,100,60,100L0,100Z"/></svg>